<svg width="388" height="83" viewBox="0 0 388 83" fill="none" xmlns="http://www.w3.org/2000/svg">
<path d="M128.025 42H144.029C149.745 42 153.403 38.3419 153.403 33.0835C153.403 28.2366 149.516 25.996 149.516 25.996V25.7674C149.516 25.7674 152.945 23.5726 152.945 18.9085C152.945 13.6501 149.287 9.99203 143.572 9.99203H128.025V42ZM135.341 35.5984V29.1968H142.886C144.715 29.1968 146.086 30.5686 146.086 32.3976C146.086 34.2266 144.715 35.5984 142.886 35.5984H135.341ZM135.341 22.7952V16.3936H142.428C144.257 16.3936 145.629 17.7654 145.629 19.5944C145.629 21.4234 144.257 22.7952 142.428 22.7952H135.341ZM158.423 42H165.282V18.6799H158.423V42ZM158.423 15.2962H165.282V9.35187H158.423V15.2962ZM169.605 42H189.496V35.5984H178.979L189.267 24.8529V18.6799H169.833V25.0815H179.893L169.605 35.827V42ZM193.834 42H200.693V18.6799H193.834V42ZM193.834 15.2962H200.693V9.35187H193.834V15.2962ZM217.133 42.4573C224.22 42.4573 229.25 37.4274 229.25 30.34C229.25 23.2525 224.22 18.2226 217.133 18.2226C210.045 18.2226 205.015 23.2525 205.015 30.34C205.015 37.4274 210.045 42.4573 217.133 42.4573ZM217.133 36.0557C214.161 36.0557 211.874 33.7694 211.874 30.34C211.874 26.9105 214.161 24.6242 217.133 24.6242C220.105 24.6242 222.391 26.9105 222.391 30.34C222.391 33.7694 220.105 36.0557 217.133 36.0557ZM137.627 82.4573C143.572 82.4573 146.315 78.6163 147.458 75.5984H144.486C143.572 77.4274 141.285 79.7137 137.627 79.7137C133.512 79.7137 130.082 76.7415 129.625 71.9404H148.007C148.007 71.9404 148.144 71.2545 148.144 70.1113C148.144 63.2525 143.572 58.6799 137.627 58.6799C131.454 58.6799 126.882 63.2525 126.882 70.5686C126.882 77.8847 131.454 82.4573 137.627 82.4573ZM129.625 69.1968C130.082 64.3956 133.283 61.4234 137.627 61.4234C141.971 61.4234 145.172 64.6242 145.401 69.1968H129.625ZM152.474 70.1113H167.106V67.5964H152.474V70.1113ZM182.192 82.4573C187.222 82.4573 191.108 79.4851 192.252 74.4553H189.279C188.822 76.2843 186.764 79.7137 182.192 79.7137C177.619 79.7137 174.19 76.2843 174.19 70.5686C174.19 64.8529 177.619 61.4234 182.192 61.4234C186.764 61.4234 188.822 64.6242 189.279 66.4533H192.252C191.108 61.6521 187.222 58.6799 182.192 58.6799C176.019 58.6799 171.446 63.2525 171.446 70.5686C171.446 77.8847 176.019 82.4573 182.192 82.4573ZM206.886 82.4573C212.83 82.4573 217.631 77.6561 217.631 70.5686C217.631 63.4811 212.83 58.6799 206.886 58.6799C200.941 58.6799 196.14 63.4811 196.14 70.5686C196.14 77.6561 200.941 82.4573 206.886 82.4573ZM206.886 79.7137C202.542 79.7137 198.884 76.0557 198.884 70.5686C198.884 65.0815 202.542 61.4234 206.886 61.4234C211.229 61.4234 214.888 65.0815 214.888 70.5686C214.888 76.0557 211.229 79.7137 206.886 79.7137ZM223.327 82H226.071V67.5964C226.071 64.167 228.814 61.4234 232.244 61.4234C235.444 61.4234 237.731 63.7097 237.731 67.5964V82H240.474V67.5964C240.474 63.9384 242.989 61.4234 246.647 61.4234C249.848 61.4234 252.134 63.7097 252.134 67.5964V82H254.878V67.5964C254.878 62.1093 251.448 58.6799 246.876 58.6799C241.617 58.6799 239.56 63.0238 239.56 63.0238H239.331C239.331 63.0238 237.731 58.6799 232.472 58.6799C228.357 58.6799 226.299 62.1093 226.299 62.1093H226.071L225.613 59.1372H223.327V82ZM262.176 82H264.92V67.5964C264.92 64.167 267.663 61.4234 271.093 61.4234C274.293 61.4234 276.58 63.7097 276.58 67.5964V82H279.323V67.5964C279.323 63.9384 281.838 61.4234 285.496 61.4234C288.697 61.4234 290.983 63.7097 290.983 67.5964V82H293.727V67.5964C293.727 62.1093 290.297 58.6799 285.725 58.6799C280.466 58.6799 278.409 63.0238 278.409 63.0238H278.18C278.18 63.0238 276.58 58.6799 271.321 58.6799C267.206 58.6799 265.148 62.1093 265.148 62.1093H264.92L264.462 59.1372H262.176V82ZM310.17 82.4573C316.115 82.4573 318.858 78.6163 320.001 75.5984H317.029C316.115 77.4274 313.828 79.7137 310.17 79.7137C306.055 79.7137 302.625 76.7415 302.168 71.9404H320.55C320.55 71.9404 320.687 71.2545 320.687 70.1113C320.687 63.2525 316.115 58.6799 310.17 58.6799C303.997 58.6799 299.425 63.2525 299.425 70.5686C299.425 77.8847 303.997 82.4573 310.17 82.4573ZM302.168 69.1968C302.625 64.3956 305.826 61.4234 310.17 61.4234C314.514 61.4234 317.715 64.6242 317.944 69.1968H302.168ZM326.389 82H329.132V66.9105C329.132 63.7097 330.961 61.8807 333.933 61.8807H337.82V59.1372H333.705C330.732 59.1372 329.589 60.7376 329.132 61.4234H328.903L328.675 59.1372H326.389V82ZM350.18 82.4573C355.21 82.4573 359.097 79.4851 360.24 74.4553H357.268C356.81 76.2843 354.753 79.7137 350.18 79.7137C345.608 79.7137 342.178 76.2843 342.178 70.5686C342.178 64.8529 345.608 61.4234 350.18 61.4234C354.753 61.4234 356.81 64.6242 357.268 66.4533H360.24C359.097 61.6521 355.21 58.6799 350.18 58.6799C344.007 58.6799 339.435 63.2525 339.435 70.5686C339.435 77.8847 344.007 82.4573 350.18 82.4573ZM374.874 82.4573C380.818 82.4573 383.562 78.6163 384.705 75.5984H381.733C380.818 77.4274 378.532 79.7137 374.874 79.7137C370.758 79.7137 367.329 76.7415 366.872 71.9404H385.254C385.254 71.9404 385.391 71.2545 385.391 70.1113C385.391 63.2525 380.818 58.6799 374.874 58.6799C368.701 58.6799 364.128 63.2525 364.128 70.5686C364.128 77.8847 368.701 82.4573 374.874 82.4573ZM366.872 69.1968C367.329 64.3956 370.53 61.4234 374.874 61.4234C379.218 61.4234 382.419 64.6242 382.647 69.1968H366.872Z" fill="#003F73"/>
<mask id="mask0" style="mask-type:alpha" maskUnits="userSpaceOnUse" x="31" y="-8" width="72" height="64">
<path d="M35.6173 21.4973L31.9524 41.8183L97.5326 25.2919L100.427 5.11981L35.6173 21.4973Z" fill="#0BA2F4"/>
</mask>
<g mask="url(#mask0)">
<path d="M49.9711 27.4708L47.5015 34.3406L113.082 21.2446L115.976 0.230652L49.9711 27.4708Z" fill="url(#paint0_linear)"/>
</g>
<path d="M112.357 14.7105L-3.05176e-05 34.4328L69.9243 36.8233L19.1246 46.3856L71.1196 54.155L16.734 59.5338L69.808 66.9973C83.4103 68.9101 96.4596 60.9123 100.929 47.9236L112.357 14.7105Z" fill="#003F73"/>
<circle cx="73.9318" cy="75.4941" r="5.80042" fill="#003F73"/>
<circle cx="51.2213" cy="75.4941" r="5.80042" fill="#003F73"/>
<defs>
<linearGradient id="paint0_linear" x1="81.8897" y1="21.4577" x2="50.78" y2="35.5572" gradientUnits="userSpaceOnUse">
<stop stop-color="#0BA2F4"/>
<stop offset="1" stop-color="#74CEFF"/>
</linearGradient>
</defs>
</svg>
