<svg width="100" height="101" viewBox="0 0 100 101" fill="none" xmlns="http://www.w3.org/2000/svg">
<path d="M100 50.6004C100 22.9898 77.6106 0.600403 50 0.600403C22.3894 0.600403 0 22.9898 0 50.6004C0 78.211 22.3894 100.6 50 100.6C77.6106 100.6 100 78.211 100 50.6004Z" fill="#D73939"/>
<path d="M18.0821 43.9884C18.0593 43.9884 18.0365 43.9656 18.0137 43.9656C18.0365 43.9656 18.0593 43.9656 18.0821 43.9884Z" fill="white"/>
<path d="M16.7565 45.9491L16.8933 45.8123L16.8477 45.7211L16.7109 45.8807L16.7565 45.9491Z" fill="white"/>
<path d="M17.1914 45.1512C17.1914 45.174 17.1914 45.1968 17.2142 45.1968C17.2142 45.174 17.2142 45.1512 17.1914 45.1284V45.1512Z" fill="white"/>
<path d="M26.0834 44.4216C26.0606 44.4216 26.0606 44.3988 26.0378 44.376C25.9922 44.1708 25.9694 43.9884 25.9694 43.8516C25.9694 43.7148 25.9922 43.5552 26.015 43.3956C25.9238 43.5552 25.8782 43.6692 25.8326 43.7148C25.8098 43.578 25.787 43.4184 25.787 43.2816C25.787 43.1448 25.787 43.008 25.7642 42.8712C25.7414 42.8484 25.673 42.8256 25.6046 42.8028C25.5362 42.78 25.4906 42.7572 25.445 42.6888C25.3994 42.5748 25.3538 42.4608 25.331 42.3468C25.3082 42.2328 25.2626 42.1416 25.217 42.0732C25.1486 42.096 25.0346 42.096 24.875 42.096C24.8066 42.096 24.761 42.0048 24.761 41.8224C24.7382 41.64 24.6698 41.5488 24.5558 41.5488C24.5102 41.64 24.4646 41.754 24.3962 41.9136C24.3506 42.0504 24.305 42.1872 24.2594 42.3012C24.191 42.6432 24.1227 43.008 24.0771 43.3956C24.0315 43.7832 23.9631 44.148 23.9175 44.4672C23.9175 44.5356 23.8719 44.604 23.8035 44.6268C23.7807 44.9004 23.7579 45.174 23.7351 45.4704C23.7123 45.7668 23.6667 46.0404 23.5755 46.314C23.4843 46.5192 23.3931 46.7244 23.3475 46.9068C23.2791 47.0892 23.2107 47.2716 23.1195 47.454C23.0283 47.6364 22.9599 47.8188 22.9143 48.0012C22.8687 48.1152 22.8231 48.252 22.8003 48.4344C22.7775 48.6168 22.7319 48.7536 22.6863 48.8448C22.5495 49.0728 22.4127 49.3008 22.2531 49.4604C22.1847 49.5516 22.1391 49.6656 22.1391 49.8024C22.1163 49.9392 22.0935 50.0076 22.0707 50.076C22.0023 50.1444 21.8883 50.3268 21.7515 50.6232C21.5919 50.8968 21.4323 51.1931 21.2271 51.4895C21.0447 51.7859 20.8623 52.0595 20.6799 52.2875C20.5203 52.5155 20.3835 52.6523 20.3151 52.6523C20.2239 52.6523 20.2011 52.6523 20.2011 52.6295C20.2011 52.6067 20.2011 52.5839 20.1555 52.5383C20.1783 52.3787 20.1783 52.1963 20.1783 51.9683C20.1783 51.7631 20.1555 51.5579 20.1555 51.3527C20.1555 51.1703 20.1327 50.988 20.1099 50.8512C20.0871 50.7144 20.0871 50.6232 20.0871 50.5776L20.3835 45.9264C20.3835 45.858 20.3607 45.7212 20.3151 45.5616C20.2695 45.402 20.2239 45.2424 20.2011 45.1056C20.1783 45.0144 20.0871 44.8776 19.9959 44.6952C19.8819 44.5128 19.7907 44.4216 19.6767 44.3988C19.5855 44.3532 19.4715 44.2848 19.3119 44.2392C19.1751 44.1708 19.0839 44.148 19.0155 44.148C18.9471 44.148 18.9471 44.148 18.9699 44.1708C18.9927 44.1936 18.9699 44.1936 18.9015 44.1936C18.8787 44.1936 18.8331 44.1708 18.7875 44.1024C18.7419 44.0568 18.6963 44.0112 18.6507 43.9884C18.5367 44.0112 18.4227 44.0112 18.3087 44.034C18.2175 44.034 18.1491 44.034 18.0579 44.0112C18.1035 44.034 18.1035 44.0568 18.1035 44.1252C18.0351 44.148 17.9439 44.2164 17.8299 44.3076C17.8071 44.2848 17.8071 44.2848 17.8071 44.262V44.2392L17.8983 44.1252C17.8071 44.1708 17.7159 44.262 17.6703 44.3532C17.6019 44.4672 17.6019 44.5128 17.6703 44.5128C17.6019 44.604 17.5335 44.6952 17.4879 44.7864C17.4423 44.8548 17.3739 44.946 17.2827 44.9916C17.3739 44.9232 17.3967 44.946 17.3283 45.0828C17.2599 45.1968 17.2143 45.2652 17.2143 45.288C17.1915 45.2652 17.1915 45.2652 17.1915 45.2424C17.2143 45.402 17.1915 45.516 17.0775 45.5844C17.0547 45.5616 17.0319 45.516 17.0319 45.4476C17.0091 45.516 16.9863 45.5616 17.0091 45.6072C17.0319 45.6528 17.0319 45.6984 17.0319 45.744C16.8951 45.9036 16.8267 46.0176 16.8267 46.086C16.8039 46.1544 16.7811 46.2228 16.7355 46.2912C16.6671 46.2912 16.6215 46.2684 16.5987 46.2456C16.5531 46.2912 16.5303 46.3368 16.5531 46.3824C16.5759 46.428 16.5531 46.4964 16.4847 46.5648C16.4619 46.542 16.4619 46.4964 16.4847 46.4736C16.5075 46.4508 16.5075 46.428 16.4391 46.428C16.3935 46.428 16.3479 46.4736 16.3023 46.5648C16.2567 46.656 16.2111 46.7472 16.1883 46.7928C16.2111 46.7928 16.2339 46.7928 16.2339 46.77C16.2339 46.77 16.2567 46.7472 16.3479 46.7472C16.3707 46.7472 16.3935 46.77 16.3935 46.7928C16.3935 46.8156 16.3935 46.8156 16.3707 46.8156C16.1883 46.9524 16.0515 47.1348 16.0059 47.34C15.9603 47.5452 15.8691 47.7276 15.7551 47.91C15.6639 48.024 15.5727 48.1152 15.4815 48.1836C15.3903 48.252 15.3219 48.3432 15.2535 48.4344C15.2307 48.4116 15.2307 48.3888 15.2763 48.366C15.3219 48.3432 15.2991 48.3432 15.2307 48.3432C15.1623 48.3432 15.0939 48.4116 15.0711 48.5712C15.0483 48.7308 15.0027 48.8676 14.9343 48.9588C14.9115 48.936 14.9115 48.936 14.8887 48.936H14.8431C14.8887 48.936 14.9115 48.9588 14.8887 49.0044C14.8431 49.164 14.7975 49.2552 14.7747 49.3008C14.3187 49.962 13.8855 50.6232 13.4523 51.33C13.0191 52.0367 12.6087 52.6067 12.2439 53.0627C12.1527 53.1767 12.0387 53.3363 11.9019 53.5187C11.7651 53.7011 11.6739 53.8151 11.6283 53.8151C11.5599 53.8151 11.5372 53.8151 11.5372 53.7923V53.7467V52.6979C11.5372 52.6751 11.5599 52.5839 11.6055 52.4015C11.6511 52.2191 11.6968 52.0139 11.7652 51.7859C11.8108 51.558 11.8791 51.33 11.9475 51.102C12.0159 50.874 12.0615 50.6916 12.1071 50.6004C12.3351 49.734 12.6543 48.8676 13.0419 47.9784C13.4295 47.0892 13.7943 46.2228 14.1363 45.3564L14.2503 45.1284C14.2959 44.9004 14.3643 44.6952 14.4327 44.5128C14.5011 44.3304 14.6151 44.1024 14.7747 43.8516C14.9115 43.578 15.0483 43.35 15.1851 43.122C15.3219 42.894 15.4359 42.7116 15.5043 42.5292C15.6183 42.324 15.7323 42.0504 15.8919 41.7312C16.0287 41.412 18.6279 37.7185 18.7647 37.4449C18.9015 37.1485 19.0155 36.8977 19.1067 36.6925C19.1979 36.4645 19.2435 36.3505 19.2435 36.3277C19.2435 36.0541 19.1523 35.7577 18.9927 35.4613C18.8331 35.1421 18.6735 34.9141 18.5367 34.7773C18.3771 34.8229 18.2175 34.8457 18.0807 34.8685C17.9211 34.8913 17.8071 34.9369 17.7387 35.0281C17.4879 35.2561 17.2827 35.5297 17.1231 35.7805C16.9635 36.0541 16.8039 36.3277 16.6215 36.6241C16.5987 36.6697 16.5759 36.7381 16.5759 36.8065C16.5759 36.8749 16.5759 36.9433 16.5531 36.9889C16.5075 37.0345 16.4391 37.1029 16.3935 37.1713C16.3251 37.2625 16.2795 37.3309 16.2795 37.4449C16.2339 37.5361 15.2535 38.9268 15.2535 38.9952C15.2307 39.0408 15.1851 39.0864 15.0939 39.1092C15.1167 39.1776 15.1395 39.2232 15.1395 39.2688C15.1395 39.3144 13.6119 41.412 13.6119 41.4348C13.0647 42.4608 12.5631 43.4184 12.1071 44.3076C11.6512 45.1968 11.218 46.1544 10.8532 47.112C10.4656 48.0924 10.1464 49.0728 9.91836 50.076C9.66756 51.0792 9.53077 52.0595 9.53077 53.0399C9.50797 53.1995 9.50797 53.3819 9.53077 53.6099C9.55357 53.8379 9.62196 54.0203 9.69036 54.1799C9.71316 54.5219 9.87277 54.8639 10.1692 55.2059C10.4656 55.5479 10.8532 55.9583 11.3776 56.4371C11.4004 56.4371 11.446 56.4143 11.4688 56.3687C11.4916 56.3231 11.5371 56.3003 11.6055 56.3003C11.6739 56.3003 11.7423 56.3231 11.8335 56.3915C11.9247 56.4599 12.0159 56.4827 12.0615 56.4827C12.1983 56.4827 12.3807 56.3687 12.6087 56.1179C12.8367 55.8899 13.0875 55.6163 13.2927 55.2971C13.5207 55.0007 13.7031 54.7271 13.8627 54.4763C14.0223 54.2255 14.0907 54.0887 14.0907 54.0887C14.1819 53.9291 14.2731 53.7467 14.3643 53.5415C14.4555 53.3363 14.5239 53.1767 14.5695 53.0399C14.6151 52.9715 14.6607 52.9259 14.7063 52.9031C14.7519 52.8803 14.7747 52.8347 14.7975 52.8119C15.0939 52.2191 15.4359 51.6263 15.8235 50.988C16.2111 50.3496 16.5987 49.7796 16.9635 49.2552C17.1231 49.05 17.2827 48.8448 17.4651 48.6624C17.6475 48.48 17.8299 48.2748 18.0579 48.0696C18.0807 48.1608 18.0807 48.2748 18.0579 48.4116C18.0351 48.5484 18.0123 48.6168 18.0123 48.6852V50.3724C18.0123 50.3952 18.0123 50.4864 18.0351 50.6004C18.0579 50.7144 18.0579 50.8512 18.0807 50.988C18.1035 51.1248 18.1035 51.2615 18.1263 51.3755C18.1263 51.4895 18.1491 51.5579 18.1491 51.5807C18.1491 51.8999 18.1719 52.3103 18.2403 52.8119C18.2859 53.3135 18.3999 53.7239 18.5595 54.0659C18.7191 54.1571 18.8559 54.2939 18.9699 54.4535C19.0839 54.6131 19.1979 54.7499 19.2891 54.8411C19.4487 54.9551 19.6767 55.0691 19.9503 55.1831C20.2239 55.2971 20.4291 55.3655 20.4975 55.3655H20.9535C21.0219 55.3655 21.1359 55.3655 21.2499 55.3427C21.3639 55.3427 21.4551 55.2971 21.5235 55.2515C21.6375 55.2287 21.7515 55.1375 21.9111 55.0235C22.0479 54.9095 22.2075 54.7727 22.3443 54.6359C22.4811 54.4991 22.6179 54.3623 22.7319 54.2255C22.8459 54.0887 22.9371 53.9975 22.9827 53.9063C23.0283 53.8379 23.0739 53.7467 23.0967 53.6555C23.1195 53.5643 23.1423 53.5187 23.1651 53.4731C23.3703 53.2679 23.5755 52.9943 23.8035 52.6523C24.0086 52.3103 24.1911 51.9911 24.3507 51.6719C24.3507 51.6491 24.3506 51.6035 24.3278 51.558C24.305 51.5124 24.305 51.4895 24.3278 51.4667C24.3734 51.3755 24.4418 51.3071 24.5102 51.2615C24.5786 51.2159 24.6242 51.1476 24.6242 51.102C24.6014 50.9196 24.6242 50.76 24.6926 50.6688C24.9206 50.2356 25.1486 49.848 25.3538 49.4832C25.5818 49.1184 25.7414 48.708 25.8326 48.2292C25.8554 48.138 25.8326 48.0468 25.8098 47.9328C25.787 47.8416 25.7642 47.7504 25.787 47.7048C25.8554 47.5224 25.901 47.34 25.9694 47.1576C26.015 46.9752 26.0834 46.8156 26.129 46.656C26.1518 46.542 26.1518 46.3596 26.1746 46.1316C26.1974 45.9036 26.1974 45.6528 26.2202 45.4248C26.2202 45.1968 26.243 44.9688 26.243 44.7864V44.4672C26.1062 44.4672 26.1062 44.4216 26.0834 44.4216ZM16.2111 47.5224L16.1427 47.454L16.2795 47.2716L16.3479 47.3172L16.2111 47.5224Z" fill="white"/>
<path d="M28.3396 43.0081C28.408 43.2133 28.4992 43.4413 28.5904 43.6921C28.7044 43.9429 28.8412 44.1025 29.0236 44.2165C29.0464 44.2393 29.0692 44.2849 29.0692 44.3077C29.0692 44.3305 29.0692 44.3533 29.092 44.3989C29.2288 44.4673 29.3656 44.5357 29.5252 44.6041C29.6848 44.6725 29.8672 44.7181 30.0496 44.6953C30.346 44.6725 30.5056 44.6269 30.574 44.5129C30.6424 44.3989 30.6652 44.2849 30.6424 44.1253C30.6196 43.9657 30.5968 43.8061 30.574 43.6465C30.5512 43.4641 30.574 43.3045 30.6652 43.1677C30.5284 43.0309 30.46 42.8941 30.4828 42.7573C30.5056 42.6205 30.4828 42.5065 30.4144 42.4381C30.3916 42.3697 30.3232 42.2785 30.232 42.2101C30.1408 42.1417 30.0496 40.3633 29.9584 40.2493C29.7988 40.2721 29.662 40.2949 29.5708 40.3405C29.4796 40.3861 29.3656 42.1189 29.2288 42.1417C29.092 42.1645 28.9552 42.1873 28.7956 42.2101C28.636 42.2329 28.4308 42.2329 28.1572 42.2101C28.2256 42.3241 28.2484 42.4609 28.2484 42.6205C28.2712 42.7801 28.294 42.9169 28.3396 43.0081Z" fill="white"/>
<path d="M39.5114 55.8898C39.6482 55.7758 39.8078 55.639 39.9674 55.5022C39.899 55.5706 39.8306 55.5478 39.7622 55.4566C39.785 55.3654 39.8762 55.2514 39.9902 55.1146C40.1042 54.9778 40.2182 54.8867 40.2866 54.7955C40.4918 54.5675 40.697 54.3167 40.8794 54.0203C41.0618 53.7239 41.2214 53.4503 41.3582 53.1995C41.4722 52.9487 41.5862 52.7207 41.7002 52.5155C41.8142 52.3103 41.9282 52.1279 42.0422 51.9911C42.065 52.1963 42.1334 52.5611 42.2474 53.1083C42.3614 53.6555 42.4754 54.0203 42.5894 54.2483C42.7262 54.4534 42.8402 54.6586 42.977 54.8182C43.1138 54.9778 43.205 55.1146 43.2734 55.2058C43.3418 55.2514 43.4558 55.3198 43.5698 55.3882C43.6838 55.4794 43.7978 55.525 43.9346 55.5706C44.0714 55.6162 44.1854 55.6618 44.2994 55.7074C44.4134 55.753 44.4818 55.7758 44.5274 55.7758C44.5958 55.753 44.6414 55.7758 44.5958 55.7986C44.573 55.8214 44.5958 55.8442 44.6642 55.8214L45.2569 55.753C45.3253 55.753 45.5078 55.7074 45.8041 55.6162C46.1005 55.525 46.3513 55.4566 46.5565 55.3654C46.5793 55.2514 46.6933 55.1602 46.8757 55.0918C47.0581 55.0234 47.2177 54.955 47.3545 54.8866C47.3773 54.7726 47.4229 54.6814 47.4457 54.613C47.4685 54.5446 47.5141 54.4991 47.5597 54.4535C47.6509 54.3851 47.7649 54.2483 47.9245 54.1115C48.0613 53.9519 48.1525 53.8151 48.1981 53.7011C48.2209 53.5871 48.2209 53.4731 48.2437 53.3135C48.2665 53.1767 48.2893 53.0399 48.3121 52.9031C48.2437 52.9715 48.0841 53.0627 47.8333 53.1995C47.5597 53.3363 47.2861 53.4959 46.9441 53.6555C46.6249 53.8379 46.2829 53.9747 45.9409 54.1115C45.5989 54.2483 45.3026 54.3395 45.0518 54.3623C44.9606 54.3851 44.8238 54.3622 44.6414 54.3166C44.459 54.271 44.3222 54.2255 44.2082 54.1799L44.1626 53.7695C44.1626 53.7239 44.1626 53.6327 44.1854 53.4959C44.2082 53.3591 44.231 53.2223 44.2766 53.0627C44.3222 52.9031 44.345 52.7207 44.3678 52.5383C44.3906 52.3559 44.4134 52.1963 44.4134 52.0823C44.459 52.0139 44.4362 51.9227 44.345 51.8315C44.3222 51.7859 44.3222 51.7631 44.3222 51.7175C44.4362 50.6003 44.5502 49.7795 44.687 49.3007C44.8238 48.8219 44.9378 48.3203 45.0518 47.8415C45.0746 47.7275 45.1202 47.5907 45.1886 47.4311C45.2569 47.2715 45.3026 47.1347 45.3254 46.9979C45.371 46.8383 45.4165 46.6559 45.4849 46.4279C45.5305 46.1999 45.5989 46.0175 45.6445 45.8579C45.6673 45.7895 45.6902 45.6755 45.6674 45.5615C45.6446 45.4475 45.6673 45.3791 45.6901 45.3335C45.9865 44.5127 46.2374 43.8971 46.4653 43.4411C46.6933 42.9851 46.8301 42.5291 46.8301 42.096C46.8301 42.0276 46.8757 40.2492 46.9669 40.1352C47.0581 40.0212 47.1265 39.93 47.1721 39.8616C47.1949 39.7932 47.2405 39.6792 47.2633 39.5424C47.2861 39.4056 47.3089 39.3144 47.3089 39.246C47.2861 39.0408 47.2177 38.8812 47.0581 38.7444C46.8985 38.6076 46.7389 38.5392 46.5565 38.4708C46.3741 38.4252 46.1917 38.3796 45.9865 38.3568C45.8041 38.334 45.6446 38.3112 45.5534 38.3112C45.2114 38.9724 44.8922 39.6108 44.6186 40.2264C44.345 40.842 44.0942 43.1219 43.889 43.7375C43.661 44.3531 43.4558 44.9687 43.2506 45.5843C43.0454 46.1999 42.8174 46.8839 42.5894 47.6135C42.5666 47.6363 42.5438 47.6591 42.521 47.6591C42.521 47.6591 42.4982 47.6819 42.4526 47.7275C42.3158 47.6363 42.2246 47.5223 42.1334 47.4083C42.0422 47.2943 41.9738 47.2031 41.9054 47.1347C41.7686 47.0663 41.6318 46.9979 41.4494 46.9523C41.267 46.9067 41.1302 46.8383 41.0162 46.7471C41.0162 46.7927 41.0162 46.8383 41.039 46.8611C41.039 46.8839 41.0162 46.9067 40.925 46.9295C40.8338 46.9295 40.7882 46.8839 40.7654 46.8155C40.7654 46.7471 40.7198 46.7243 40.6514 46.7243C40.5602 46.7243 40.4462 46.7243 40.355 46.7471C40.241 46.7699 40.1726 46.7927 40.127 46.8155C40.0586 46.8383 39.9902 46.8839 39.8762 46.9523C39.7622 47.0207 39.6938 47.0663 39.671 47.1119C39.5114 47.2715 39.3746 47.4311 39.2378 47.5907C39.101 47.7503 39.0098 47.9099 38.8958 48.0695C38.6906 48.4343 38.4626 48.8903 38.189 49.4375C37.9154 49.9847 37.6646 50.5547 37.4366 51.1475C37.1858 51.7403 36.9806 52.3331 36.8438 52.9031C36.7526 53.2451 36.707 53.5643 36.6842 53.8607C36.6386 53.9063 36.5702 53.9291 36.5246 53.9747C36.3194 54.1342 36.2054 54.2026 36.137 54.2026C36.0686 54.2026 36.023 54.1798 36.0458 54.157C36.0686 54.1342 36.023 54.1115 35.9318 54.1115C35.8862 54.1115 35.8406 54.1343 35.7722 54.1799C35.7266 54.2255 35.6582 54.271 35.5898 54.3166C35.2934 54.4078 35.111 54.4763 34.997 54.5219C34.883 54.5675 34.8146 54.5902 34.769 54.5902C34.6778 54.5902 34.6094 54.5674 34.5638 54.5446C34.5182 54.5218 34.4726 54.499 34.3814 54.499C34.3358 54.499 34.2902 54.5219 34.2674 54.5675C34.2446 54.6131 34.1762 54.6359 34.085 54.6359C33.9026 54.6359 33.7202 54.5675 33.515 54.4535C33.4694 54.4079 33.4239 54.3394 33.3555 54.271C33.3099 54.2026 33.2643 54.1343 33.2415 54.0659C33.2187 53.9291 33.2186 53.7467 33.1958 53.4959C33.1958 53.2679 33.173 53.1083 33.173 53.0627C33.173 52.8803 33.1958 52.6523 33.2186 52.3331C33.2414 52.0139 33.2871 51.6947 33.3555 51.3755C33.4239 51.0563 33.4694 50.7371 33.5378 50.4179C33.5834 50.0987 33.6518 49.8479 33.6974 49.6655C33.743 49.3919 33.8114 49.1183 33.9026 48.8219C33.9938 48.5255 34.1078 48.2519 34.2218 47.9783L36.5702 38.6988C36.5246 38.6304 36.5018 38.5164 36.5246 38.3796C36.5474 38.2428 36.5246 38.1288 36.479 38.0604C36.4562 37.9464 36.3878 37.8096 36.3194 37.6728C36.251 37.5132 36.1826 37.3992 36.137 37.2852H36.023H35.9546C35.9546 37.308 35.9318 37.308 35.909 37.308C35.795 37.2852 35.7038 37.2396 35.5898 37.1712C35.4986 37.1028 35.4074 37.0572 35.3162 37.0572C35.2478 37.0572 35.2022 37.0572 35.1338 37.08C35.0882 37.1028 35.0426 37.1028 34.997 37.1028C35.0198 37.3992 34.9514 37.65 34.7918 37.8552C34.6322 38.0832 34.4726 38.4024 34.3358 38.8584C34.313 38.9952 34.2446 39.1092 34.1534 39.2232C34.0622 39.3372 33.9938 39.4512 33.9482 39.5652C33.743 40.158 33.5378 42.3923 33.3555 42.9167C33.1731 43.4411 33.0362 43.8515 32.945 44.1935C32.8538 44.5355 32.7627 44.8775 32.6715 45.2423C32.5803 45.6071 32.5346 45.9263 32.489 46.1999C32.4662 46.2683 32.4207 46.3595 32.3523 46.4507C32.2839 46.5419 32.2383 46.6331 32.2155 46.7471C31.9875 47.6135 31.7823 48.4799 31.5543 49.3463C31.3719 50.1215 31.2579 50.9423 31.2351 51.8315C30.9159 52.1279 30.5511 52.4243 30.1407 52.7435C29.6163 53.1311 29.0691 53.4731 28.4991 53.7239C28.4307 53.4275 28.4307 53.1767 28.4991 52.9487C28.5675 52.7207 28.6815 52.3559 28.8411 51.8543C28.8639 51.7403 28.9095 51.6035 28.9323 51.4211C28.9551 51.2387 29.0007 51.1019 29.0463 50.9879C29.2059 50.7143 29.3199 50.3039 29.4111 49.7339C29.4795 49.1639 29.5707 48.7535 29.6391 48.4571C29.6619 48.3659 29.6847 48.2747 29.7075 48.2063C29.7303 48.1379 29.7531 48.0695 29.7531 48.0011C29.7303 47.7047 29.5251 47.4083 29.1831 47.1347C28.8411 46.8611 28.5219 46.7471 28.2255 46.7471C28.1343 46.7699 28.0431 46.7927 27.9519 46.8155C27.8607 46.8383 27.7695 46.8611 27.6783 46.8611C27.5871 46.9295 27.5415 47.0207 27.5187 47.1119C27.4959 47.2031 27.4503 47.2487 27.4047 47.2943C27.3819 47.4539 27.3819 47.5679 27.3819 47.6363C27.0855 48.2975 26.8119 49.1183 26.5839 50.1443C26.5611 50.2127 26.5383 50.3267 26.4927 50.5091C26.4471 50.6915 26.3787 50.8967 26.3331 51.1247C26.2647 51.3527 26.2191 51.6491 26.1963 51.9911C26.1735 52.3331 26.1507 52.5839 26.1735 52.7207C26.1963 52.9715 26.2419 53.2907 26.3559 53.6327C26.4699 53.9975 26.6295 54.3166 26.8347 54.613C27.0399 54.9094 27.3135 55.1602 27.5871 55.3654C27.8835 55.5706 28.2255 55.6618 28.6587 55.639C28.7271 55.639 28.8867 55.6162 29.0919 55.5478C29.2971 55.4794 29.4795 55.411 29.6163 55.3426C29.7075 55.297 29.7531 55.2286 29.7531 55.1602V55.0006C29.8899 54.8182 30.0951 54.6359 30.3459 54.4079C30.5967 54.1799 30.8019 54.0203 31.0071 53.9063C30.9843 53.7239 31.0071 53.5871 31.0755 53.4959C31.1211 53.4731 31.1895 53.4275 31.2351 53.3591C31.2807 53.3135 31.3263 53.2679 31.3491 53.1995C31.4175 53.5643 31.5543 53.9063 31.7139 54.2939C31.8963 54.6815 32.1471 55.0463 32.4207 55.3654C32.717 55.6846 33.0363 55.9126 33.4238 56.0494C33.5378 56.0722 33.6974 56.1406 33.9254 56.2318C34.1534 56.323 34.2902 56.3686 34.3358 56.3686C34.4042 56.3686 34.4498 56.3458 34.427 56.323C34.4042 56.3002 34.4498 56.2774 34.541 56.2774C34.6094 56.2774 34.7006 56.3002 34.7462 56.323C34.8146 56.3458 34.9058 56.3002 35.0654 56.1862L35.2022 56.323C35.339 56.3002 35.4758 56.2546 35.6126 56.209C35.7494 56.1634 35.8862 56.1178 36.0002 56.0722C36.137 56.0494 36.2282 55.981 36.3422 55.867C36.4334 55.753 36.5246 55.6846 36.6158 55.6162C36.7298 55.525 36.8666 55.4338 37.0262 55.3426C37.2086 55.5934 37.4822 55.9126 37.8926 56.2546C38.0294 56.2546 38.1662 56.2774 38.3258 56.3002C38.4854 56.323 38.5994 56.3458 38.6678 56.3458C38.8274 56.323 38.9414 56.3002 39.0098 56.2318C39.0782 56.1862 39.1466 56.095 39.215 56.0038C39.2606 56.1178 39.3746 56.0038 39.5114 55.8898ZM31.2579 53.2679C31.2123 53.2679 31.1667 53.2679 31.1439 53.2451C31.2123 53.1767 31.2579 53.1311 31.3035 53.0627C31.3263 53.1311 31.3263 53.2223 31.3491 53.2907C31.3491 53.2907 31.3491 53.2907 31.3491 53.3135C31.3263 53.2907 31.2807 53.2679 31.2579 53.2679ZM39.2378 52.6295C39.2834 52.4927 39.329 52.3787 39.3746 52.2647C39.3746 52.2191 39.3518 52.1735 39.329 52.1507C39.3062 52.1279 39.2834 52.1051 39.2834 52.0595C39.3518 51.8315 39.443 51.5807 39.557 51.3071C39.6482 51.0335 39.7622 50.7827 39.9218 50.5319C39.9902 50.3495 40.127 50.1671 40.2866 49.9619C40.4462 49.7567 40.583 49.5743 40.6742 49.4147C40.7198 49.3691 40.7426 49.3235 40.7426 49.2779C40.7426 49.2323 40.7426 49.1867 40.7198 49.1411C40.7654 49.1639 40.8338 49.1183 40.925 49.0499C41.0162 48.9815 41.1074 48.8903 41.153 48.8447C41.2214 48.9587 41.2442 49.0727 41.267 49.1867C41.267 49.3007 41.2898 49.4147 41.3126 49.4831C41.3126 49.5515 41.3126 49.6199 41.2898 49.6883C41.267 49.7567 41.2898 49.8479 41.3354 49.8935C41.3126 50.0531 41.2442 50.1671 41.153 50.2127C41.0618 50.2583 40.9934 50.3267 40.9478 50.3723C40.9706 50.4407 40.9934 50.5091 40.9706 50.6231C40.9478 50.7371 40.9022 50.7827 40.8338 50.7827C40.7426 50.8055 40.7198 50.7827 40.7426 50.7599C40.7882 50.7371 40.7882 50.6915 40.7198 50.6459C40.6514 50.8283 40.6286 50.9651 40.6058 51.0563C40.6058 51.1475 40.5146 51.2387 40.3778 51.2843V51.4211C40.4006 51.4667 40.3778 51.4667 40.3322 51.4439C40.2866 51.4211 40.241 51.3983 40.1954 51.4211C40.127 51.4211 40.0814 51.4895 40.0586 51.6035C40.0358 51.7403 40.013 51.8315 39.9902 51.9227C39.8762 51.9683 39.7394 52.1051 39.5798 52.3103C39.4202 52.5155 39.2834 52.7207 39.1694 52.9259C39.1694 52.8803 39.1922 52.7663 39.2378 52.6295Z" fill="white"/>
<path d="M42.3387 100.03C44.5959 87.8097 50.2046 57.3492 50.2958 56.8932C50.387 56.3232 50.501 55.7532 50.5922 55.1832C50.7062 54.6132 50.8202 54.0432 50.9342 53.496C51.071 52.9488 51.185 52.47 51.299 52.0596C51.299 52.0368 51.3218 51.9684 51.3902 51.9C51.4358 51.8316 51.5042 51.7632 51.5498 51.7176C52.2338 51.5352 52.9406 51.3528 53.6702 51.216C54.3998 51.0564 55.0838 50.8968 55.745 50.6916C55.9046 50.6688 56.0642 50.6004 56.2694 50.532C56.4518 50.4636 56.6342 50.3952 56.8166 50.3496C56.999 50.304 57.1586 50.2584 57.2726 50.2128C57.2954 50.19 57.341 50.1901 57.3638 50.1901C57.341 50.2585 57.341 50.304 57.3182 50.3724C57.2954 50.4408 57.2726 50.5548 57.227 50.7372C57.1814 50.9196 57.113 51.1248 57.0674 51.3528C56.999 51.5808 56.9534 51.8772 56.9306 52.2192C56.9078 52.5612 56.885 52.812 56.9078 52.9488C56.9306 53.1996 56.9762 53.5188 57.0902 53.8608C57.2042 54.2256 57.3637 54.5448 57.5689 54.8412C57.7741 55.1376 58.0478 55.3884 58.3214 55.5936C58.6178 55.7988 58.9597 55.89 59.3929 55.8672C59.4613 55.8672 59.6209 55.8444 59.8261 55.776C60.0313 55.7076 60.2137 55.6392 60.3505 55.5708C60.4417 55.5252 60.4873 55.4568 60.4873 55.3884V55.2288C60.6241 55.0464 60.8293 54.864 61.0801 54.636C61.2625 54.4536 61.4449 54.3168 61.6045 54.2256C61.6273 54.3852 61.6729 54.5448 61.7413 54.6816C61.8325 54.864 61.9237 55.092 62.0149 55.3428C62.1517 55.32 62.1973 55.3428 62.1973 55.4568C62.1973 55.5708 62.2201 55.6392 62.2657 55.6848C62.3797 55.7304 62.4937 55.7988 62.6533 55.8444C62.7901 55.9128 62.8813 55.9356 62.9497 55.9356C63.1093 55.9356 63.2689 55.89 63.4057 55.7988C63.2917 55.4568 63.2917 55.1148 63.4057 54.7272C63.5197 54.3624 63.6565 53.9976 63.8161 53.6784C63.8617 53.5872 63.8845 53.4732 63.9073 53.3592C63.9073 53.2452 63.9529 53.154 64.0213 53.0628C64.0897 52.9944 64.1809 52.9032 64.2493 52.8348C64.3177 52.7664 64.3861 52.6752 64.4317 52.5612C64.4545 52.5384 64.4545 52.5156 64.4089 52.4928C64.3861 52.47 64.3633 52.4244 64.3633 52.3788C64.5913 52.0596 64.7965 51.7632 64.9333 51.4896C64.9333 51.4668 64.9105 51.444 64.8649 51.4212C64.8193 51.3984 64.8193 51.3528 64.8421 51.3072C64.8421 51.2844 64.8649 51.2616 64.9105 51.2616H64.9333C64.9789 51.2616 65.0017 51.2616 65.0245 51.2388C65.0473 51.216 65.0701 51.216 65.0929 51.216C65.0929 51.1704 65.0701 51.1248 65.0473 51.102C65.0245 51.0792 65.0017 51.0564 65.0245 51.0108L65.0929 50.9196C65.1157 50.8968 65.1385 50.8968 65.1613 50.8968C65.1157 50.8512 65.1385 50.76 65.2069 50.6004C65.2753 50.6004 65.2981 50.646 65.2981 50.7144C65.5945 50.2584 65.9365 49.7796 66.3469 49.3009C66.7345 48.8221 67.1677 48.4801 67.6465 48.3205C67.6693 48.4801 67.6921 48.6169 67.7149 48.7309C67.7377 48.8449 67.7377 48.9361 67.7605 49.0273C67.9885 48.9817 68.1709 48.9589 68.3305 48.9817C68.4901 49.0045 68.6269 49.0273 68.7637 49.0273C68.7181 48.9133 68.7409 48.8221 68.8777 48.7081C68.9917 48.6169 69.0829 48.5029 69.1285 48.3889C69.0601 48.2977 69.0145 48.2065 68.9917 48.0925C68.9689 48.0013 68.9233 47.9101 68.8777 47.8645C68.6041 47.5225 68.2393 47.2717 67.7833 47.0665C67.3273 46.8841 66.9169 46.7701 66.5749 46.7701C66.2785 46.7701 65.9365 46.9069 65.5033 47.1577C65.4121 47.2033 65.3437 47.2717 65.2525 47.3173C65.0245 47.4997 64.8193 47.6821 64.6141 47.8645C64.4317 48.0469 64.3177 48.2065 64.2493 48.3661C64.2493 48.1837 64.2721 48.0469 64.2949 47.9101C64.3177 47.7733 64.3405 47.6593 64.3177 47.5225C64.2949 47.3401 64.2721 47.1805 64.2265 46.9981C64.1809 46.8157 64.1353 46.6561 64.0669 46.4737C63.9985 46.3141 63.8845 46.1545 63.6793 46.0177C63.4969 45.8809 63.3373 45.8125 63.2005 45.8125H62.9041C62.8357 46.0405 62.7901 46.2685 62.7673 46.5193C62.7445 46.7701 62.7217 47.0209 62.6761 47.2261C62.6533 47.5681 62.6077 47.9329 62.5621 48.2749C62.5165 48.6169 62.4709 48.9133 62.4481 49.1869C62.4253 49.6428 62.3569 50.0988 62.2885 50.5548C62.2201 50.988 62.1289 51.4212 62.0149 51.8544C61.6729 52.1736 61.2853 52.4928 60.8521 52.8348C60.3277 53.2224 59.7805 53.5644 59.2105 53.8152C59.1193 53.5188 59.1193 53.268 59.2105 53.04C59.2789 52.812 59.3929 52.4472 59.5525 51.9456C59.5753 51.8316 59.6209 51.6948 59.6437 51.5124C59.6665 51.33 59.7121 51.1932 59.7577 51.0792C59.9173 50.8056 60.0313 50.3952 60.1225 49.8253C60.1453 49.6429 60.1681 49.4833 60.1909 49.3237C60.2593 49.3009 60.3277 49.2781 60.3961 49.2553C60.5329 49.2097 60.6469 49.1641 60.7609 49.1185C60.7609 49.0501 60.7381 49.0045 60.6925 48.9817C60.6469 48.9589 60.6013 48.9133 60.5557 48.8905L60.6697 48.7537C60.8521 48.6397 60.9889 48.5485 61.1029 48.4801C61.1257 48.4801 61.1485 48.4573 61.1485 48.4573H60.9433V48.3661H61.1713V48.4573C61.2625 48.4117 61.3537 48.3889 61.4449 48.3889C61.3993 48.3889 61.3537 48.3661 61.3309 48.3205C61.3081 48.2749 61.2625 48.2521 61.1713 48.2521C61.1029 48.2521 60.9661 48.2749 60.8293 48.3205C60.6697 48.3661 60.5785 48.3889 60.5101 48.3889C60.4189 48.3889 60.3961 48.3661 60.4417 48.3205C60.4873 48.2749 60.4873 48.2521 60.3961 48.2521C60.4189 48.2065 60.4189 48.1609 60.4189 48.1153C60.3961 47.8189 60.1909 47.5225 59.8489 47.2489C59.5069 46.9753 59.1877 46.8613 58.8913 46.8613C58.8001 46.8841 58.7089 46.9069 58.6177 46.9297C58.5265 46.9525 58.4353 46.9753 58.3441 46.9753C58.2757 47.0665 58.2073 47.1349 58.1845 47.2261C58.1617 47.3173 58.1161 47.3629 58.0705 47.4085C58.0477 47.5681 58.0478 47.6821 58.0478 47.7505C57.9338 47.9785 57.8426 48.2293 57.7514 48.4801C57.6602 48.4801 57.569 48.4801 57.5006 48.4801C57.0218 48.5029 56.6114 48.5029 56.2694 48.5029C56.2466 48.5029 56.2466 48.5029 56.2238 48.5257C56.1554 48.5941 56.0414 48.6397 55.9046 48.6397C55.5626 48.6853 55.2434 48.7081 54.9014 48.7081C54.5594 48.7081 54.2402 48.7309 53.9438 48.7765C53.693 48.7993 53.3966 48.8677 53.0546 48.9133C52.7126 48.9817 52.439 48.9589 52.1882 48.8905V48.7309C52.2338 48.6625 52.2794 48.5941 52.325 48.5485C52.3706 48.4801 52.3706 48.4345 52.3706 48.3889C52.3022 48.3205 52.2794 48.2521 52.2794 48.1837C52.325 48.1381 52.3706 48.1153 52.3934 48.1153C52.4162 48.1153 52.4618 48.0925 52.4846 48.0697C52.5986 47.7733 52.6898 47.4769 52.781 47.2033C52.8494 46.9297 52.9406 46.6789 52.9862 46.4281C53.0774 45.9265 53.2142 45.4249 53.351 44.8777C53.5106 44.3305 53.6246 43.8745 53.7386 43.4869C53.8982 42.9853 54.1034 40.7737 54.3542 40.2265C54.605 39.6793 54.7646 39.2917 54.833 39.0637C54.8558 38.9953 54.9014 38.8129 55.0154 38.5393C55.1294 38.2657 55.2434 37.9921 55.3574 37.6957C55.4714 37.4221 55.6082 37.1714 55.7222 36.9434C55.859 36.7154 55.973 36.6014 56.087 36.6014C56.1554 36.6014 56.201 36.6242 56.2238 36.6926C56.2238 36.761 56.2466 36.8294 56.2466 36.875C56.2466 37.1029 56.201 37.2853 56.1098 37.4677C56.0642 37.4221 56.0414 37.3765 56.0414 37.3537C56.0414 37.3309 56.0186 37.3082 55.973 37.2626C55.9502 37.2854 55.9046 37.3309 55.859 37.3537C55.8134 37.3765 55.7906 37.445 55.7906 37.5362C55.7906 37.6046 55.8134 37.7413 55.8818 37.9009C55.9274 38.0605 55.9958 38.1973 56.0642 38.3113C56.1098 38.3569 56.1782 38.4025 56.2694 38.4481C56.3606 38.4937 56.429 38.5393 56.5202 38.5849L56.4062 38.6989H56.5202C56.5658 38.6989 56.6114 38.7217 56.657 38.7673L56.8394 38.6533C56.8622 38.6533 56.885 38.6761 56.9306 38.7217C56.9762 38.7673 57.0218 38.7901 57.0674 38.7901C57.1586 38.6533 57.2726 38.5393 57.3638 38.4253C57.4778 38.3113 57.5689 38.2657 57.6829 38.2657C57.7513 38.0605 57.8198 37.8097 57.9338 37.4905C58.0478 37.1714 58.0934 36.989 58.0934 36.875C58.0934 36.8066 58.0249 36.647 57.9109 36.3962C57.7969 36.1682 57.6829 35.9402 57.6146 35.7806C57.5006 35.6438 57.3638 35.507 57.1814 35.3474C56.999 35.1878 56.8166 35.0282 56.6798 34.9142C56.6114 34.8686 56.5202 34.8002 56.4062 34.7546C56.2922 34.6862 56.1782 34.6406 56.0642 34.595C55.9502 34.5722 55.8362 34.5722 55.7222 34.5722C55.6082 34.5722 55.4942 34.5494 55.4258 34.5038C55.3574 34.4582 55.3118 34.4126 55.2662 34.3898C55.2206 34.367 55.1522 34.3442 55.0838 34.3442C55.0154 34.3442 54.947 34.3898 54.8558 34.4582C54.7646 34.5494 54.6506 34.6406 54.5366 34.7546C54.4226 34.8686 54.3314 34.9826 54.2174 35.0966C54.1262 35.2106 54.0578 35.3018 54.035 35.3474C53.7386 35.8034 53.4878 36.305 53.237 36.8522C53.009 37.3994 53.1458 37.9465 52.9634 38.5165C52.7582 39.0865 52.5758 39.6565 52.3934 40.2265C52.211 40.7965 51.6638 43.0309 51.5042 43.5097C51.3902 43.8289 51.299 44.1709 51.2078 44.5357C51.1394 44.9005 51.0482 45.2653 50.957 45.6073C50.8202 46.1545 50.6834 46.7701 50.5466 47.4085C50.4098 48.0697 50.2958 48.6853 50.159 49.3009C49.7942 49.3009 49.5206 49.3465 49.3382 49.4149C49.1558 49.4833 48.9734 49.5061 48.8366 49.5061C48.6998 49.5061 48.563 49.4833 48.449 49.4833C48.3806 49.4833 48.3578 49.5061 48.3806 49.5517C48.4034 49.5973 48.3806 49.6201 48.2894 49.6201C48.1526 49.6201 48.0386 49.6429 47.9702 49.6657C47.9018 49.6885 47.8334 49.7113 47.7878 49.7113C47.7422 49.7113 47.651 49.7113 47.5826 49.6885C47.4914 49.6657 47.3774 49.6201 47.2178 49.5061C47.2862 49.6885 47.2862 49.7797 47.195 49.8025C47.1038 49.8253 47.0582 49.848 47.0582 49.8936C47.0582 49.962 47.081 50.076 47.1266 50.2584C47.1722 50.4408 47.2406 50.6004 47.2862 50.7828C47.3546 50.9424 47.423 51.102 47.4686 51.2388C47.537 51.3756 47.5826 51.444 47.5826 51.4668C47.6282 51.5124 47.6966 51.5808 47.7878 51.6492C47.879 51.7404 47.9474 51.786 48.0158 51.8316C48.0842 51.8772 48.1526 51.9228 48.1982 51.9456C48.2666 51.9684 48.335 51.9912 48.4034 51.9912C48.4946 51.9912 48.5858 52.0368 48.677 52.1052C48.677 52.0824 48.6542 52.0368 48.6314 52.014C48.6086 51.9912 48.6314 51.9684 48.6998 51.9684C48.791 51.9684 48.8822 51.9912 48.9734 52.014C49.0646 52.0368 49.1102 52.0824 49.1558 52.1508C49.2698 52.0368 49.3838 52.014 49.5206 52.0596C49.4978 52.3788 49.4294 52.7436 49.3382 53.1768C49.247 53.61 49.1558 54.0204 49.0646 54.408C48.9734 54.7956 48.905 55.1376 48.8366 55.434C48.7682 55.7304 48.7454 55.89 48.7454 55.9356L40.4463 99.7113L42.3387 100.03Z" fill="white"/>
<path d="M71.9577 45.5388C71.9349 45.5616 71.9121 45.5616 71.9121 45.5844C71.9121 45.6072 71.9349 45.63 71.9577 45.6528C71.9577 45.6072 71.9577 45.5844 71.9577 45.5388Z" fill="white"/>
<path d="M74.5102 53.6785C74.419 53.6785 74.3506 53.6557 74.2822 53.5873C74.0542 53.6557 73.7806 53.7241 73.4842 53.8153C73.1878 53.9065 72.8914 53.9977 72.5722 54.1117C72.3898 54.0433 72.2302 54.0205 72.1162 54.0889C72.0022 54.1573 71.8654 54.1801 71.7514 54.1801H71.4094C71.2498 54.1801 71.1358 54.1573 71.0674 54.1117C70.9306 54.0433 70.771 53.9521 70.6114 53.8381C70.4518 53.7241 70.3606 53.6101 70.3606 53.5189C70.3606 53.4505 70.429 53.3365 70.5658 53.1541C70.7026 52.9717 70.885 52.7665 71.113 52.5385C71.341 52.3105 71.569 52.0597 71.7742 51.7861C72.0022 51.5125 72.2074 51.2845 72.3898 51.1021C72.595 50.8513 72.8002 50.5549 73.0282 50.2585C73.2334 49.9393 73.393 49.6885 73.4842 49.5061C73.5298 49.3465 73.5754 49.1641 73.6438 48.9589C73.6894 48.7537 73.7578 48.5713 73.7806 48.3661C73.8262 48.1609 73.849 48.0013 73.8946 47.8417C73.9174 47.6821 73.9402 47.5909 73.9402 47.5681C73.9402 47.4085 73.9174 47.3173 73.849 47.2717C73.8034 47.2261 73.735 47.2033 73.6666 47.1577C73.5982 47.1349 73.5526 47.0665 73.507 46.9753C73.4614 46.8841 73.4386 46.7017 73.4386 46.4737C73.393 46.4281 73.3474 46.3825 73.3018 46.3369C73.2562 46.2913 73.2106 46.2685 73.1422 46.2685C73.0738 46.2685 73.0282 46.2913 73.0738 46.3141C73.0966 46.3369 73.0738 46.3597 72.9826 46.3597C72.9142 46.3597 72.8686 46.3141 72.8686 46.2229C72.8686 46.1317 72.8458 46.0177 72.823 45.9037C72.709 45.8809 72.595 45.8125 72.4582 45.7441C72.3214 45.6757 72.2302 45.6301 72.1618 45.6301C72.0706 45.6301 72.0478 45.6529 72.0934 45.6757C72.139 45.6985 72.1162 45.7213 72.025 45.7213C72.0022 45.7213 71.9794 45.7213 71.9794 45.6985C71.9566 45.7669 71.8882 45.8353 71.7742 45.9037C71.5918 45.9721 71.455 46.0405 71.341 46.0861C71.113 46.2229 70.9306 46.3597 70.8622 46.4965C70.771 46.6333 70.6342 46.7701 70.4746 46.9297C70.4062 47.0893 70.2922 47.2489 70.1554 47.4085C70.0186 47.5681 69.9274 47.7049 69.8362 47.8189C69.6538 48.1153 69.517 48.3889 69.3802 48.6397C69.2434 48.9133 69.1522 49.1185 69.0382 49.3237C68.8558 49.6885 68.6962 50.0761 68.5366 50.4865C68.377 50.8969 68.2631 51.2161 68.2175 51.4441C68.1719 51.6265 68.1034 51.8773 68.035 52.1509C67.9666 52.4245 67.9667 52.8121 68.0123 53.2909C68.1035 53.7925 68.1719 54.1345 68.2402 54.3169C68.2858 54.4993 68.3314 54.6361 68.3542 54.7045C68.377 54.7729 68.3999 54.8184 68.4455 54.8412C68.4911 54.864 68.5595 54.9097 68.6735 54.9781C68.9698 55.2973 69.2206 55.5252 69.3802 55.6392C69.5398 55.776 69.8134 55.8672 70.1554 55.9584L70.429 56.3232C70.4518 56.2092 70.4974 56.1408 70.5886 56.1408C70.6798 56.118 70.771 56.118 70.885 56.1636C70.999 56.1864 71.0902 56.232 71.227 56.2776C71.341 56.3232 71.4322 56.346 71.5006 56.346C71.569 56.346 71.5918 56.3232 71.5918 56.3004V56.232C71.7286 56.2092 71.8654 56.1636 72.025 56.0952C72.1846 56.0268 72.3442 55.9812 72.4582 55.9584C72.4126 55.9584 72.367 55.9584 72.3214 55.9356C72.2758 55.9128 72.2986 55.89 72.367 55.8672C72.5494 55.8672 72.709 55.8444 72.8458 55.8216C73.0054 55.7988 73.1422 55.7533 73.279 55.7077C73.279 55.5253 73.3246 55.32 73.4386 55.1148C73.5526 54.9096 73.6894 54.8412 73.8946 54.8868C73.9402 54.7728 73.9858 54.6589 74.0314 54.5677C74.077 54.4537 74.1226 54.3853 74.1682 54.3169C73.9858 54.2713 73.8946 54.1801 73.8946 54.0889C74.0086 54.0661 74.0998 53.9977 74.191 53.9293C74.2822 53.7925 74.3734 53.7241 74.5102 53.6785Z" fill="white"/>
<path d="M57.7763 42.5064C57.6851 43.0536 57.8219 43.806 57.9815 44.376C58.0727 44.1024 58.2551 43.8288 58.5743 43.6464C59.7143 42.9852 60.2159 41.8225 60.3527 41.0701C60.4895 40.3177 61.0139 42.1416 60.7403 43.5096C60.4667 44.8776 59.6231 45.1968 59.6231 45.1968C59.6231 45.1968 60.8771 45.6756 61.2419 44.8776C61.4471 44.4216 61.1963 45.0828 60.9227 45.6984C61.1051 45.63 61.2875 45.5388 61.4927 45.4476C62.7239 44.8092 62.7923 43.8516 62.5415 43.008C62.5415 42.9852 62.5643 42.9624 62.5643 42.9624C63.4307 41.4577 62.9747 37.9237 62.9747 37.9237L62.6555 39.9529C62.6555 39.9529 62.2907 40.4545 61.7207 40.8649L62.5187 37.9237L62.2679 34.8457C62.2907 35.3017 62.4275 38.2657 60.5351 39.4969C60.1019 39.7705 59.7599 40.0897 59.4635 40.4317C59.5319 40.0897 59.6003 39.6793 59.6003 39.2689C59.5547 39.2233 57.9587 41.4805 57.7763 42.5064Z" fill="white"/>
<path d="M93.0938 47.7733C92.9114 47.9557 92.729 48.1609 92.5694 48.4117C92.387 48.6625 92.2046 48.4573 91.9994 48.6853C91.9538 48.7309 91.8626 48.7765 91.7714 48.8221C91.6802 48.8677 91.589 48.9133 91.4978 49.0045V49.0501C91.4978 49.1185 91.5206 49.1869 91.5434 49.2097C91.3154 49.2781 91.019 49.3465 90.6542 49.3921C90.2894 49.4377 89.9474 49.5061 89.6282 49.5745C89.309 49.6429 89.0126 49.6885 88.7618 49.7341C88.4882 49.7797 88.3286 49.8025 88.283 49.8025C88.2146 49.8025 88.055 49.8025 87.8042 49.7797C87.5534 49.7569 87.3026 49.7569 87.0062 49.7569C86.7098 49.7569 86.4362 49.7341 86.1854 49.7113C85.9346 49.6885 85.7978 49.6657 85.775 49.6657C85.6838 49.6657 85.4786 49.6885 85.2278 49.7341C84.9542 49.7797 84.6806 49.8253 84.3614 49.9165C84.2702 49.9621 84.2019 50.0989 84.2019 50.3041L84.2474 54.9781C84.2018 54.9781 84.0879 55.0237 83.9511 55.0921C83.7915 55.1605 83.7459 55.3429 83.7687 55.5937C83.5863 55.5481 83.4723 55.6393 83.4267 55.8673C83.2671 55.8901 83.1302 55.9357 82.9935 55.9585C82.8567 56.0041 82.7199 56.0269 82.5831 56.0269C82.4463 56.0269 82.3551 56.0041 82.2867 55.9357C82.2183 55.8673 82.1271 55.8445 82.0131 55.8445C81.8079 55.4797 81.6711 55.0921 81.5799 54.6361C81.4887 54.2029 81.4431 53.7241 81.4203 53.2225C81.3975 52.7209 81.4659 51.4897 81.4659 51.0109C81.4659 50.5321 81.4203 50.0533 81.3519 49.5745C81.3063 49.6429 81.1923 49.6885 81.0099 49.6885C80.9187 49.6885 80.8503 49.7113 80.8275 49.7569C80.8047 49.8025 80.7363 49.8253 80.5995 49.8253C80.0067 49.8253 79.3455 49.6885 78.6159 49.4149C77.8863 49.1413 77.2023 49.3465 76.7235 48.5941C76.7007 48.5029 76.6779 48.3889 76.6779 48.2521C76.6779 48.1153 76.5867 48.0241 76.4043 47.9557C76.4271 47.7961 76.4955 47.6137 76.6323 47.3857C76.7691 47.1577 76.8375 46.9981 76.9059 46.8841C77.0883 46.7017 77.3619 46.5877 77.7495 46.4965C77.8407 46.4053 77.9547 46.2457 78.0459 46.0405C78.5247 45.9721 79.0719 45.9721 79.6647 46.0405C80.2575 46.1089 80.6451 46.1545 80.7819 46.1545C80.8731 46.1545 81.0099 46.1317 81.1923 46.0861C81.3519 46.0405 81.5115 45.9493 81.6711 45.8581C81.7167 45.4021 81.7395 44.9233 81.7395 44.4217C81.7395 43.9201 81.7851 43.4414 81.8991 42.9626C81.9903 42.575 82.1043 42.0734 82.2183 41.435C82.3323 40.7966 82.5375 40.3406 82.8567 40.0214C83.0163 39.8162 83.1758 39.7022 83.3582 39.6338C83.5406 39.5882 83.7003 39.5426 83.8599 39.497C84.0195 39.4514 84.1107 39.4058 84.1791 39.3374C84.2475 39.269 84.2702 39.1094 84.2474 38.813C84.2702 38.8358 84.3158 38.8586 84.3614 38.8586C84.3842 38.9042 84.4299 38.927 84.5211 38.927C84.4983 39.1322 84.4982 39.2918 84.5666 39.4514C84.6122 39.5882 84.6578 39.725 84.7262 39.8618C84.7718 39.7934 84.8174 39.725 84.8174 39.6566C84.8402 39.5882 84.8858 39.5198 84.9542 39.4514C84.9542 39.5426 84.9314 39.6566 84.8858 39.7478C84.8402 39.839 84.8403 39.953 84.8631 40.0442L85.1366 39.8618C85.205 40.0442 85.2962 40.2722 85.4102 40.523C85.5014 40.7966 85.5698 41.0018 85.5698 41.1614C85.5698 41.207 85.5242 41.4578 85.433 41.8682C85.3418 42.2786 85.2506 42.7574 85.1366 43.3046C85.0454 43.829 84.9314 44.3533 84.8402 44.8549C84.749 45.3565 84.7034 45.7213 84.7034 45.9493C84.7034 46.1317 84.7718 46.2457 84.9314 46.3369C85.1822 46.3825 85.4786 46.4281 85.8206 46.4509C86.1626 46.4737 86.5274 46.5193 86.915 46.5649C87.8042 46.7473 88.7162 46.9069 89.6282 47.0437C90.5402 47.1805 91.4522 47.2945 92.3414 47.3629C92.3642 47.4085 92.4782 47.4997 92.6378 47.5909C92.729 47.5681 92.9114 47.6593 93.0938 47.7733Z" fill="white"/>
</svg>
